<svg width="495" height="207" viewBox="0 0 495 207" fill="none" xmlns="http://www.w3.org/2000/svg">
<path d="M8.79126 141.076V41" stroke="black" stroke-width="17.581" stroke-linecap="round"/>
<path d="M79.7913 142.09L8.79126 41" stroke="black" stroke-width="17.581" stroke-linecap="round"/>
<path d="M79.7913 142.09L79.7913 42.0143" stroke="black" stroke-width="17.581" stroke-linecap="round"/>
<path d="M62.5483 59.9333L79.4756 42.0143" stroke="black" stroke-width="17.581" stroke-linecap="round"/>
<path d="M141.619 152.967C134.895 152.967 128.817 151.816 123.383 149.513C118.041 147.211 113.804 143.895 110.672 139.566C107.541 135.237 105.929 130.126 105.837 124.231H126.56C126.836 128.191 128.218 131.323 130.705 133.626C133.284 135.928 136.784 137.079 141.204 137.079C145.718 137.079 149.263 136.02 151.842 133.902C154.421 131.691 155.711 128.836 155.711 125.336C155.711 122.481 154.836 120.133 153.086 118.29C151.336 116.448 149.125 115.021 146.454 114.008C143.875 112.902 140.283 111.705 135.678 110.416C129.415 108.574 124.304 106.778 120.343 105.028C116.475 103.186 113.113 100.469 110.258 96.8766C107.495 93.1925 106.113 88.3111 106.113 82.2323C106.113 76.5219 107.541 71.5484 110.396 67.3117C113.251 63.075 117.258 59.8514 122.416 57.6409C127.573 55.3384 133.468 54.1871 140.099 54.1871C150.046 54.1871 158.105 56.6278 164.276 61.5092C170.539 66.2986 173.993 73.0221 174.638 81.6797H153.362C153.178 78.364 151.75 75.647 149.079 73.5286C146.5 71.3182 143.047 70.2129 138.718 70.2129C134.942 70.2129 131.902 71.18 129.6 73.1142C127.389 75.0483 126.284 77.8574 126.284 81.5415C126.284 84.1204 127.113 86.2848 128.771 88.0348C130.521 89.6926 132.639 91.0742 135.126 92.1794C137.705 93.1925 141.297 94.3898 145.902 95.7714C152.165 97.6134 157.276 99.4555 161.237 101.298C165.197 103.14 168.605 105.903 171.46 109.587C174.315 113.271 175.743 118.106 175.743 124.093C175.743 129.251 174.407 134.04 171.736 138.461C169.066 142.882 165.151 146.428 159.993 149.099C154.836 151.678 148.711 152.967 141.619 152.967ZM215.03 91.3505V128.376C215.03 130.955 215.629 132.843 216.826 134.04C218.116 135.145 220.234 135.698 223.182 135.698H232.162V152H220.004C203.702 152 195.551 144.079 195.551 128.238V91.3505H186.433V75.4628H195.551V56.5357H215.03V75.4628H232.162V91.3505H215.03ZM241.099 113.455C241.099 105.718 242.619 98.8568 245.658 92.8702C248.79 86.8835 252.981 82.2784 258.23 79.0548C263.572 75.8312 269.513 74.2194 276.052 74.2194C281.763 74.2194 286.736 75.3707 290.973 77.6732C295.302 79.9758 298.756 82.877 301.334 86.3769V75.4628H320.814V152H301.334V140.81C298.848 144.402 295.394 147.395 290.973 149.79C286.644 152.092 281.625 153.243 275.914 153.243C269.467 153.243 263.572 151.586 258.23 148.27C252.981 144.954 248.79 140.303 245.658 134.316C242.619 128.238 241.099 121.284 241.099 113.455ZM301.334 113.731C301.334 109.034 300.413 105.028 298.571 101.712C296.729 98.3042 294.243 95.7253 291.111 93.9754C287.98 92.1333 284.618 91.2123 281.026 91.2123C277.434 91.2123 274.118 92.0873 271.079 93.8372C268.039 95.5872 265.553 98.1661 263.618 101.574C261.776 104.89 260.855 108.85 260.855 113.455C260.855 118.06 261.776 122.113 263.618 125.613C265.553 129.02 268.039 131.645 271.079 133.487C274.21 135.329 277.526 136.25 281.026 136.25C284.618 136.25 287.98 135.375 291.111 133.626C294.243 131.783 296.729 129.205 298.571 125.889C300.413 122.481 301.334 118.429 301.334 113.731ZM334.731 113.731C334.731 105.811 336.343 98.9029 339.566 93.0083C342.79 87.0216 347.257 82.4165 352.967 79.1929C358.678 75.8772 365.217 74.2194 372.585 74.2194C382.072 74.2194 389.9 76.6141 396.071 81.4034C402.334 86.1006 406.525 92.732 408.643 101.298H387.782C386.677 97.9818 384.789 95.403 382.118 93.5609C379.539 91.6268 376.315 90.6597 372.447 90.6597C366.921 90.6597 362.546 92.6859 359.322 96.7385C356.099 100.699 354.487 106.363 354.487 113.731C354.487 121.007 356.099 126.672 359.322 130.724C362.546 134.685 366.921 136.665 372.447 136.665C380.276 136.665 385.387 133.165 387.782 126.165H408.643C406.525 134.454 402.334 141.04 396.071 145.921C389.808 150.803 381.98 153.243 372.585 153.243C365.217 153.243 358.678 151.632 352.967 148.408C347.257 145.092 342.79 140.487 339.566 134.593C336.343 128.606 334.731 121.652 334.731 113.731ZM468.127 152L442.154 119.396V152H422.813V49.7662H442.154V107.929L467.851 75.4628H492.995L459.285 113.87L493.271 152H468.127Z" fill="black"/>
</svg>
