<svg xmlns="http://www.w3.org/2000/svg" viewBox="0 0 32 32">
  <defs>
    <linearGradient id="bg" x1="0%" y1="0%" x2="100%" y2="100%">
      <stop offset="0%" style="stop-color:#D4FF00"/>
      <stop offset="100%" style="stop-color:#9EFF00"/>
    </linearGradient>
  </defs>
  <rect width="32" height="32" rx="8" fill="url(#bg)"/>
  <path d="M16 5c-6.075 0-11 4.925-11 11 0 1.944.506 3.77 1.393 5.354L5 27l5.896-1.542A10.95 10.95 0 0016 27c6.075 0 11-4.925 11-11S22.075 5 16 5zm5.22 15.042c-.22.62-1.274 1.186-1.77 1.262-.45.07-.99.1-1.595-.1-.365-.12-.833-.28-1.43-.55-2.5-1.09-4.13-3.57-4.255-3.74-.12-.17-.99-1.32-.99-2.52s.63-1.79.855-2.035c.22-.245.48-.305.64-.305s.32.005.46.01c.15.005.35-.055.55.42.205.49.695 1.705.755 1.828.06.12.1.27.02.43-.08.165-.12.265-.24.41-.12.14-.255.315-.365.425-.12.12-.245.25-.105.49.14.24.62 1.03 1.335 1.67.92.82 1.695 1.075 1.935 1.195.24.12.38.1.52-.06.14-.16.6-.705.76-.95.16-.24.32-.2.54-.12.22.08 1.405.665 1.645.785.24.12.4.18.46.28.06.1.06.585-.16 1.15z" fill="#020617"/>
</svg>